<?xml version="1.0" encoding="UTF-8" standalone="no"?><!DOCTYPE svg PUBLIC "-//W3C//DTD SVG 1.1//EN" "http://www.w3.org/Graphics/SVG/1.1/DTD/svg11.dtd"><!-- Generated by graphviz version 2.26.3 (20100126.1600) --><!-- Title: blocktree Pages: 1 --><svg width="334pt" height="372pt" viewBox="0.00 0.00 334.00 372.00" xmlns="http://www.w3.org/2000/svg" xmlns:xlink="http://www.w3.org/1999/xlink"><g id="graph1" class="graph" transform="scale(1 1) rotate(0) translate(4 368)"><title>blocktree</title><polygon fill="white" stroke="white" points="-4,5 -4,-368 331,-368 331,5 -4,5"/><!-- 41 --><g id="node1" class="node"><title>41</title><polygon fill="none" stroke="red" points="154,-124 86,-124 86,-80 154,-80 154,-124"/><text text-anchor="middle" x="120" y="-107.4" font-family="Times Roman,serif" font-size="14.00">t2:10.0</text><text text-anchor="middle" x="120" y="-89.4" font-family="Times Roman,serif" font-size="14.00">30.0</text></g><!-- 40 --><g id="node10" class="node"><title>40</title><polygon fill="none" stroke="blue" points="111,-44 43,-44 43,-2.13163e-14 111,-7.10543e-15 111,-44"/><text text-anchor="middle" x="77" y="-27.4" font-family="Times Roman,serif" font-size="14.00">t1:10.0</text><text text-anchor="middle" x="77" y="-9.4" font-family="Times Roman,serif" font-size="14.00">10.0</text></g><!-- 41&#45;&gt;40 --><g id="edge4" class="edge"><title>41&#45;&gt;40</title><path fill="none" stroke="black" d="M108.022,-79.7155C103.596,-71.4803 98.4944,-61.9895 93.7236,-53.1136"/><polygon fill="black" stroke="black" points="96.731,-51.3161 88.9137,-44.165 90.5653,-54.6303 96.731,-51.3161"/></g><!-- 43 --><g id="node2" class="node"><title>43</title><polygon fill="none" stroke="blue" points="154,-204 86,-204 86,-160 154,-160 154,-204"/><text text-anchor="middle" x="120" y="-187.4" font-family="Times Roman,serif" font-size="14.00">t1:10.0</text><text text-anchor="middle" x="120" y="-169.4" font-family="Times Roman,serif" font-size="14.00">50.0</text></g><!-- 43&#45;&gt;41 --><g id="edge6" class="edge"><title>43&#45;&gt;41</title><path fill="none" stroke="black" d="M120,-159.716C120,-151.827 120,-142.787 120,-134.238"/><polygon fill="black" stroke="black" points="123.5,-134.165 120,-124.165 116.5,-134.165 123.5,-134.165"/></g><!-- 42 --><g id="node3" class="node"><title>42</title><polygon fill="none" stroke="green" points="68,-124 3.55271e-14,-124 0,-80 68,-80 68,-124"/><text text-anchor="middle" x="34" y="-107.4" font-family="Times Roman,serif" font-size="14.00">t3:10.0</text><text text-anchor="middle" x="34" y="-89.4" font-family="Times Roman,serif" font-size="14.00">30.0</text></g><!-- 42&#45;&gt;40 --><g id="edge2" class="edge"><title>42&#45;&gt;40</title><path fill="none" stroke="black" d="M45.9779,-79.7155C50.4044,-71.4803 55.5056,-61.9895 60.2764,-53.1136"/><polygon fill="black" stroke="black" points="63.4347,-54.6303 65.0863,-44.165 57.269,-51.3161 63.4347,-54.6303"/></g><!-- 49 --><g id="node4" class="node"><title>49</title><polygon fill="none" stroke="green" points="154,-364 86,-364 86,-320 154,-320 154,-364"/><text text-anchor="middle" x="120" y="-347.4" font-family="Times Roman,serif" font-size="14.00">t3:10.0</text><text text-anchor="middle" x="120" y="-329.4" font-family="Times Roman,serif" font-size="14.00">100.0</text></g><!-- 45 --><g id="node9" class="node"><title>45</title><polygon fill="none" stroke="green" points="240,-284 172,-284 172,-240 240,-240 240,-284"/><text text-anchor="middle" x="206" y="-267.4" font-family="Times Roman,serif" font-size="14.00">t3:10.0</text><text text-anchor="middle" x="206" y="-249.4" font-family="Times Roman,serif" font-size="14.00">90.0</text></g><!-- 49&#45;&gt;45 --><g id="edge14" class="edge"><title>49&#45;&gt;45</title><path fill="none" stroke="black" d="M143.956,-319.716C153.461,-310.873 164.522,-300.584 174.65,-291.162"/><polygon fill="black" stroke="black" points="177.235,-293.539 182.173,-284.165 172.467,-288.413 177.235,-293.539"/></g><!-- 47 --><g id="node5" class="node"><title>47</title><polygon fill="none" stroke="red" points="240,-364 172,-364 172,-320 240,-320 240,-364"/><text text-anchor="middle" x="206" y="-347.4" font-family="Times Roman,serif" font-size="14.00">t2:10.0</text><text text-anchor="middle" x="206" y="-329.4" font-family="Times Roman,serif" font-size="14.00">120.0</text></g><!-- 47&#45;&gt;45 --><g id="edge18" class="edge"><title>47&#45;&gt;45</title><path fill="none" stroke="black" d="M206,-319.716C206,-311.827 206,-302.787 206,-294.238"/><polygon fill="black" stroke="black" points="209.5,-294.165 206,-284.165 202.5,-294.165 209.5,-294.165"/></g><!-- 44 --><g id="node6" class="node"><title>44</title><polygon fill="none" stroke="red" points="68,-284 3.55271e-14,-284 0,-240 68,-240 68,-284"/><text text-anchor="middle" x="34" y="-267.4" font-family="Times Roman,serif" font-size="14.00">t2:10.0</text><text text-anchor="middle" x="34" y="-249.4" font-family="Times Roman,serif" font-size="14.00">70.0</text></g><!-- 44&#45;&gt;43 --><g id="edge8" class="edge"><title>44&#45;&gt;43</title><path fill="none" stroke="black" d="M57.9558,-239.716C67.461,-230.873 78.5221,-220.584 88.6505,-211.162"/><polygon fill="black" stroke="black" points="91.2347,-213.539 96.1727,-204.165 86.4669,-208.413 91.2347,-213.539"/></g><!-- 48 --><g id="node7" class="node"><title>48</title><polygon fill="none" stroke="blue" points="326,-364 258,-364 258,-320 326,-320 326,-364"/><text text-anchor="middle" x="292" y="-347.4" font-family="Times Roman,serif" font-size="14.00">t1:10.0</text><text text-anchor="middle" x="292" y="-329.4" font-family="Times Roman,serif" font-size="14.00">110.0</text></g><!-- 48&#45;&gt;45 --><g id="edge16" class="edge"><title>48&#45;&gt;45</title><path fill="none" stroke="black" d="M268.044,-319.716C258.539,-310.873 247.478,-300.584 237.35,-291.162"/><polygon fill="black" stroke="black" points="239.533,-288.413 229.827,-284.165 234.765,-293.539 239.533,-288.413"/></g><!-- 46 --><g id="node8" class="node"><title>46</title><polygon fill="none" stroke="blue" points="154,-284 86,-284 86,-240 154,-240 154,-284"/><text text-anchor="middle" x="120" y="-267.4" font-family="Times Roman,serif" font-size="14.00">t1:10.0</text><text text-anchor="middle" x="120" y="-249.4" font-family="Times Roman,serif" font-size="14.00">60.0</text></g><!-- 46&#45;&gt;43 --><g id="edge10" class="edge"><title>46&#45;&gt;43</title><path fill="none" stroke="black" d="M120,-239.716C120,-231.827 120,-222.787 120,-214.238"/><polygon fill="black" stroke="black" points="123.5,-214.165 120,-204.165 116.5,-214.165 123.5,-214.165"/></g><!-- 45&#45;&gt;43 --><g id="edge12" class="edge"><title>45&#45;&gt;43</title><path fill="none" stroke="black" d="M182.044,-239.716C172.539,-230.873 161.478,-220.584 151.35,-211.162"/><polygon fill="black" stroke="black" points="153.533,-208.413 143.827,-204.165 148.765,-213.539 153.533,-208.413"/></g></g></svg>